<svg version="1.1" preserveAspectRatio="xMinYMin slice" xmlns="http://www.w3.org/2000/svg" width="900" height="520" viewBox="0 0 900 520"><!--{"isLandscape":true,"mapWidth":30,"mapHeight":20,"palette":["#FFFFFF","#C0690B","#2AE525"]}--><path d="M15 0 L0 26 L30 26 Z" fill="#FFFFFF" rel="0"></path><path d="M15 0 L30 26 L45 0 Z" fill="#C0690B" rel="1"></path><path d="M45 0 L30 26 L60 26 Z" fill="#C0690B" rel="2"></path><path d="M45 0 L60 26 L75 0 Z" fill="#C0690B" rel="3"></path><path d="M75 0 L60 26 L90 26 Z" fill="#C0690B" rel="4"></path><path d="M75 0 L90 26 L105 0 Z" fill="#C0690B" rel="5"></path><path d="M105 0 L90 26 L120 26 Z" fill="#C0690B" rel="6"></path><path d="M105 0 L120 26 L135 0 Z" fill="#C0690B" rel="7"></path><path d="M135 0 L120 26 L150 26 Z" fill="#C0690B" rel="8"></path><path d="M135 0 L150 26 L165 0 Z" fill="#C0690B" rel="9"></path><path d="M165 0 L150 26 L180 26 Z" fill="#C0690B" rel="10"></path><path d="M165 0 L180 26 L195 0 Z" fill="#C0690B" rel="11"></path><path d="M195 0 L180 26 L210 26 Z" fill="#C0690B" rel="12"></path><path d="M195 0 L210 26 L225 0 Z" fill="#C0690B" rel="13"></path><path d="M225 0 L210 26 L240 26 Z" fill="#C0690B" rel="14"></path><path d="M225 0 L240 26 L255 0 Z" fill="#C0690B" rel="15"></path><path d="M255 0 L240 26 L270 26 Z" fill="#C0690B" rel="16"></path><path d="M255 0 L270 26 L285 0 Z" fill="#C0690B" rel="17"></path><path d="M285 0 L270 26 L300 26 Z" fill="#C0690B" rel="18"></path><path d="M285 0 L300 26 L315 0 Z" fill="#C0690B" rel="19"></path><path d="M315 0 L300 26 L330 26 Z" fill="#C0690B" rel="20"></path><path d="M315 0 L330 26 L345 0 Z" fill="#C0690B" rel="21"></path><path d="M345 0 L330 26 L360 26 Z" fill="#C0690B" rel="22"></path><path d="M345 0 L360 26 L375 0 Z" fill="#C0690B" rel="23"></path><path d="M375 0 L360 26 L390 26 Z" fill="#C0690B" rel="24"></path><path d="M375 0 L390 26 L405 0 Z" fill="#C0690B" rel="25"></path><path d="M405 0 L390 26 L420 26 Z" fill="#C0690B" rel="26"></path><path d="M405 0 L420 26 L435 0 Z" fill="#C0690B" rel="27"></path><path d="M435 0 L420 26 L450 26 Z" fill="#C0690B" rel="28"></path><path d="M435 0 L450 26 L465 0 Z" fill="#C0690B" rel="29"></path><path d="M465 0 L450 26 L480 26 Z" fill="#C0690B" rel="30"></path><path d="M465 0 L480 26 L495 0 Z" fill="#C0690B" rel="31"></path><path d="M0 26 L15 52 L30 26 Z" fill="#FFFFFF" rel="59"></path><path d="M30 26 L15 52 L45 52 Z" fill="#FFFFFF" rel="60"></path><path d="M30 26 L45 52 L60 26 Z" fill="#C0690B" rel="61"></path><path d="M60 26 L45 52 L75 52 Z" fill="#C0690B" rel="62"></path><path d="M60 26 L75 52 L90 26 Z" fill="#2AE525" rel="63"></path><path d="M90 26 L75 52 L105 52 Z" fill="#2AE525" rel="64"></path><path d="M90 26 L105 52 L120 26 Z" fill="#2AE525" rel="65"></path><path d="M120 26 L105 52 L135 52 Z" fill="#2AE525" rel="66"></path><path d="M120 26 L135 52 L150 26 Z" fill="#2AE525" rel="67"></path><path d="M150 26 L135 52 L165 52 Z" fill="#2AE525" rel="68"></path><path d="M150 26 L165 52 L180 26 Z" fill="#2AE525" rel="69"></path><path d="M180 26 L165 52 L195 52 Z" fill="#2AE525" rel="70"></path><path d="M180 26 L195 52 L210 26 Z" fill="#2AE525" rel="71"></path><path d="M210 26 L195 52 L225 52 Z" fill="#2AE525" rel="72"></path><path d="M210 26 L225 52 L240 26 Z" fill="#2AE525" rel="73"></path><path d="M240 26 L225 52 L255 52 Z" fill="#2AE525" rel="74"></path><path d="M240 26 L255 52 L270 26 Z" fill="#2AE525" rel="75"></path><path d="M270 26 L255 52 L285 52 Z" fill="#2AE525" rel="76"></path><path d="M270 26 L285 52 L300 26 Z" fill="#2AE525" rel="77"></path><path d="M300 26 L285 52 L315 52 Z" fill="#2AE525" rel="78"></path><path d="M300 26 L315 52 L330 26 Z" fill="#2AE525" rel="79"></path><path d="M330 26 L315 52 L345 52 Z" fill="#2AE525" rel="80"></path><path d="M330 26 L345 52 L360 26 Z" fill="#2AE525" rel="81"></path><path d="M360 26 L345 52 L375 52 Z" fill="#2AE525" rel="82"></path><path d="M360 26 L375 52 L390 26 Z" fill="#C0690B" rel="83"></path><path d="M390 26 L375 52 L405 52 Z" fill="#C0690B" rel="84"></path><path d="M390 26 L405 52 L420 26 Z" fill="#2AE525" rel="85"></path><path d="M420 26 L405 52 L435 52 Z" fill="#2AE525" rel="86"></path><path d="M420 26 L435 52 L450 26 Z" fill="#2AE525" rel="87"></path><path d="M450 26 L435 52 L465 52 Z" fill="#2AE525" rel="88"></path><path d="M450 26 L465 52 L480 26 Z" fill="#2AE525" rel="89"></path><path d="M480 26 L465 52 L495 52 Z" fill="#FFFFFF" rel="90"></path><path d="M480 26 L495 52 L510 26 Z" fill="#FFFFFF" rel="91"></path><path d="M510 26 L495 52 L525 52 Z" fill="#FFFFFF" rel="92"></path><path d="M15 52 L30 78 L45 52 Z" fill="#FFFFFF" rel="119"></path><path d="M45 52 L30 78 L60 78 Z" fill="#FFFFFF" rel="120"></path><path d="M45 52 L60 78 L75 52 Z" fill="#C0690B" rel="121"></path><path d="M75 52 L60 78 L90 78 Z" fill="#C0690B" rel="122"></path><path d="M75 52 L90 78 L105 52 Z" fill="#2AE525" rel="123"></path><path d="M105 52 L90 78 L120 78 Z" fill="#2AE525" rel="124"></path><path d="M105 52 L120 78 L135 52 Z" fill="#C0690B" rel="125"></path><path d="M135 52 L120 78 L150 78 Z" fill="#C0690B" rel="126"></path><path d="M135 52 L150 78 L165 52 Z" fill="#2AE525" rel="127"></path><path d="M165 52 L150 78 L180 78 Z" fill="#2AE525" rel="128"></path><path d="M165 52 L180 78 L195 52 Z" fill="#2AE525" rel="129"></path><path d="M195 52 L180 78 L210 78 Z" fill="#2AE525" rel="130"></path><path d="M195 52 L210 78 L225 52 Z" fill="#2AE525" rel="131"></path><path d="M225 52 L210 78 L240 78 Z" fill="#2AE525" rel="132"></path><path d="M225 52 L240 78 L255 52 Z" fill="#2AE525" rel="133"></path><path d="M255 52 L240 78 L270 78 Z" fill="#2AE525" rel="134"></path><path d="M255 52 L270 78 L285 52 Z" fill="#2AE525" rel="135"></path><path d="M285 52 L270 78 L300 78 Z" fill="#2AE525" rel="136"></path><path d="M285 52 L300 78 L315 52 Z" fill="#2AE525" rel="137"></path><path d="M315 52 L300 78 L330 78 Z" fill="#2AE525" rel="138"></path><path d="M315 52 L330 78 L345 52 Z" fill="#2AE525" rel="139"></path><path d="M345 52 L330 78 L360 78 Z" fill="#2AE525" rel="140"></path><path d="M345 52 L360 78 L375 52 Z" fill="#C0690B" rel="141"></path><path d="M375 52 L360 78 L390 78 Z" fill="#C0690B" rel="142"></path><path d="M375 52 L390 78 L405 52 Z" fill="#C0690B" rel="143"></path><path d="M405 52 L390 78 L420 78 Z" fill="#2AE525" rel="144"></path><path d="M405 52 L420 78 L435 52 Z" fill="#2AE525" rel="145"></path><path d="M435 52 L420 78 L450 78 Z" fill="#2AE525" rel="146"></path><path d="M435 52 L450 78 L465 52 Z" fill="#2AE525" rel="147"></path><path d="M465 52 L450 78 L480 78 Z" fill="#FFFFFF" rel="148"></path><path d="M465 52 L480 78 L495 52 Z" fill="#FFFFFF" rel="149"></path><path d="M495 52 L480 78 L510 78 Z" fill="#FFFFFF" rel="150"></path><path d="M495 52 L510 78 L525 52 Z" fill="#FFFFFF" rel="151"></path><path d="M525 52 L510 78 L540 78 Z" fill="#FFFFFF" rel="152"></path><path d="M525 52 L540 78 L555 52 Z" fill="#FFFFFF" rel="153"></path><path d="M555 52 L540 78 L570 78 Z" fill="#FFFFFF" rel="154"></path><path d="M30 78 L45 104 L60 78 Z" fill="#FFFFFF" rel="179"></path><path d="M60 78 L45 104 L75 104 Z" fill="#FFFFFF" rel="180"></path><path d="M60 78 L75 104 L90 78 Z" fill="#C0690B" rel="181"></path><path d="M90 78 L75 104 L105 104 Z" fill="#C0690B" rel="182"></path><path d="M90 78 L105 104 L120 78 Z" fill="#C0690B" rel="183"></path><path d="M120 78 L105 104 L135 104 Z" fill="#C0690B" rel="184"></path><path d="M120 78 L135 104 L150 78 Z" fill="#C0690B" rel="185"></path><path d="M150 78 L135 104 L165 104 Z" fill="#2AE525" rel="186"></path><path d="M150 78 L165 104 L180 78 Z" fill="#2AE525" rel="187"></path><path d="M180 78 L165 104 L195 104 Z" fill="#2AE525" rel="188"></path><path d="M180 78 L195 104 L210 78 Z" fill="#2AE525" rel="189"></path><path d="M210 78 L195 104 L225 104 Z" fill="#2AE525" rel="190"></path><path d="M210 78 L225 104 L240 78 Z" fill="#2AE525" rel="191"></path><path d="M240 78 L225 104 L255 104 Z" fill="#2AE525" rel="192"></path><path d="M240 78 L255 104 L270 78 Z" fill="#2AE525" rel="193"></path><path d="M270 78 L255 104 L285 104 Z" fill="#C0690B" rel="194"></path><path d="M270 78 L285 104 L300 78 Z" fill="#C0690B" rel="195"></path><path d="M300 78 L285 104 L315 104 Z" fill="#2AE525" rel="196"></path><path d="M300 78 L315 104 L330 78 Z" fill="#2AE525" rel="197"></path><path d="M330 78 L315 104 L345 104 Z" fill="#2AE525" rel="198"></path><path d="M330 78 L345 104 L360 78 Z" fill="#2AE525" rel="199"></path><path d="M360 78 L345 104 L375 104 Z" fill="#2AE525" rel="200"></path><path d="M360 78 L375 104 L390 78 Z" fill="#2AE525" rel="201"></path><path d="M390 78 L375 104 L405 104 Z" fill="#2AE525" rel="202"></path><path d="M390 78 L405 104 L420 78 Z" fill="#2AE525" rel="203"></path><path d="M420 78 L405 104 L435 104 Z" fill="#2AE525" rel="204"></path><path d="M420 78 L435 104 L450 78 Z" fill="#2AE525" rel="205"></path><path d="M450 78 L465 104 L480 78 Z" fill="#FFFFFF" rel="207"></path><path d="M480 78 L465 104 L495 104 Z" fill="#FFFFFF" rel="208"></path><path d="M480 78 L495 104 L510 78 Z" fill="#FFFFFF" rel="209"></path><path d="M510 78 L495 104 L525 104 Z" fill="#FFFFFF" rel="210"></path><path d="M510 78 L525 104 L540 78 Z" fill="#FFFFFF" rel="211"></path><path d="M540 78 L555 104 L570 78 Z" fill="#FFFFFF" rel="213"></path><path d="M570 78 L555 104 L585 104 Z" fill="#FFFFFF" rel="214"></path><path d="M45 104 L60 130 L75 104 Z" fill="#FFFFFF" rel="239"></path><path d="M75 104 L60 130 L90 130 Z" fill="#FFFFFF" rel="240"></path><path d="M75 104 L90 130 L105 104 Z" fill="#C0690B" rel="241"></path><path d="M105 104 L90 130 L120 130 Z" fill="#C0690B" rel="242"></path><path d="M105 104 L120 130 L135 104 Z" fill="#C0690B" rel="243"></path><path d="M135 104 L120 130 L150 130 Z" fill="#C0690B" rel="244"></path><path d="M135 104 L150 130 L165 104 Z" fill="#2AE525" rel="245"></path><path d="M165 104 L150 130 L180 130 Z" fill="#2AE525" rel="246"></path><path d="M165 104 L180 130 L195 104 Z" fill="#C0690B" rel="247"></path><path d="M195 104 L180 130 L210 130 Z" fill="#2AE525" rel="248"></path><path d="M195 104 L210 130 L225 104 Z" fill="#2AE525" rel="249"></path><path d="M225 104 L210 130 L240 130 Z" fill="#2AE525" rel="250"></path><path d="M225 104 L240 130 L255 104 Z" fill="#2AE525" rel="251"></path><path d="M255 104 L240 130 L270 130 Z" fill="#C0690B" rel="252"></path><path d="M255 104 L270 130 L285 104 Z" fill="#2AE525" rel="253"></path><path d="M285 104 L270 130 L300 130 Z" fill="#2AE525" rel="254"></path><path d="M285 104 L300 130 L315 104 Z" fill="#2AE525" rel="255"></path><path d="M315 104 L300 130 L330 130 Z" fill="#2AE525" rel="256"></path><path d="M315 104 L330 130 L345 104 Z" fill="#2AE525" rel="257"></path><path d="M345 104 L330 130 L360 130 Z" fill="#2AE525" rel="258"></path><path d="M345 104 L360 130 L375 104 Z" fill="#2AE525" rel="259"></path><path d="M375 104 L360 130 L390 130 Z" fill="#2AE525" rel="260"></path><path d="M375 104 L390 130 L405 104 Z" fill="#2AE525" rel="261"></path><path d="M405 104 L390 130 L420 130 Z" fill="#2AE525" rel="262"></path><path d="M405 104 L420 130 L435 104 Z" fill="#2AE525" rel="263"></path><path d="M435 104 L420 130 L450 130 Z" fill="#FFFFFF" rel="264"></path><path d="M465 104 L450 130 L480 130 Z" fill="#FFFFFF" rel="266"></path><path d="M465 104 L480 130 L495 104 Z" fill="#FFFFFF" rel="267"></path><path d="M495 104 L480 130 L510 130 Z" fill="#FFFFFF" rel="268"></path><path d="M495 104 L510 130 L525 104 Z" fill="#FFFFFF" rel="269"></path><path d="M525 104 L510 130 L540 130 Z" fill="#FFFFFF" rel="270"></path><path d="M525 104 L540 130 L555 104 Z" fill="#FFFFFF" rel="271"></path><path d="M555 104 L540 130 L570 130 Z" fill="#FFFFFF" rel="272"></path><path d="M555 104 L570 130 L585 104 Z" fill="#FFFFFF" rel="273"></path><path d="M585 104 L570 130 L600 130 Z" fill="#FFFFFF" rel="274"></path><path d="M60 130 L75 156 L90 130 Z" fill="#FFFFFF" rel="299"></path><path d="M90 130 L75 156 L105 156 Z" fill="#FFFFFF" rel="300"></path><path d="M90 130 L105 156 L120 130 Z" fill="#C0690B" rel="301"></path><path d="M120 130 L105 156 L135 156 Z" fill="#C0690B" rel="302"></path><path d="M120 130 L135 156 L150 130 Z" fill="#2AE525" rel="303"></path><path d="M150 130 L135 156 L165 156 Z" fill="#2AE525" rel="304"></path><path d="M150 130 L165 156 L180 130 Z" fill="#2AE525" rel="305"></path><path d="M180 130 L165 156 L195 156 Z" fill="#2AE525" rel="306"></path><path d="M180 130 L195 156 L210 130 Z" fill="#2AE525" rel="307"></path><path d="M210 130 L195 156 L225 156 Z" fill="#2AE525" rel="308"></path><path d="M210 130 L225 156 L240 130 Z" fill="#2AE525" rel="309"></path><path d="M240 130 L225 156 L255 156 Z" fill="#2AE525" rel="310"></path><path d="M240 130 L255 156 L270 130 Z" fill="#2AE525" rel="311"></path><path d="M270 130 L255 156 L285 156 Z" fill="#2AE525" rel="312"></path><path d="M270 130 L285 156 L300 130 Z" fill="#2AE525" rel="313"></path><path d="M300 130 L285 156 L315 156 Z" fill="#2AE525" rel="314"></path><path d="M300 130 L315 156 L330 130 Z" fill="#2AE525" rel="315"></path><path d="M330 130 L315 156 L345 156 Z" fill="#2AE525" rel="316"></path><path d="M330 130 L345 156 L360 130 Z" fill="#2AE525" rel="317"></path><path d="M360 130 L345 156 L375 156 Z" fill="#2AE525" rel="318"></path><path d="M360 130 L375 156 L390 130 Z" fill="#2AE525" rel="319"></path><path d="M390 130 L375 156 L405 156 Z" fill="#2AE525" rel="320"></path><path d="M390 130 L405 156 L420 130 Z" fill="#2AE525" rel="321"></path><path d="M420 130 L405 156 L435 156 Z" fill="#FFFFFF" rel="322"></path><path d="M420 130 L435 156 L450 130 Z" fill="#FFFFFF" rel="323"></path><path d="M450 130 L435 156 L465 156 Z" fill="#FFFFFF" rel="324"></path><path d="M450 130 L465 156 L480 130 Z" fill="#FFFFFF" rel="325"></path><path d="M480 130 L465 156 L495 156 Z" fill="#FFFFFF" rel="326"></path><path d="M480 130 L495 156 L510 130 Z" fill="#FFFFFF" rel="327"></path><path d="M510 130 L495 156 L525 156 Z" fill="#FFFFFF" rel="328"></path><path d="M510 130 L525 156 L540 130 Z" fill="#FFFFFF" rel="329"></path><path d="M540 130 L525 156 L555 156 Z" fill="#FFFFFF" rel="330"></path><path d="M540 130 L555 156 L570 130 Z" fill="#FFFFFF" rel="331"></path><path d="M570 130 L585 156 L600 130 Z" fill="#FFFFFF" rel="333"></path><path d="M75 156 L90 182 L105 156 Z" fill="#FFFFFF" rel="359"></path><path d="M105 156 L120 182 L135 156 Z" fill="#C0690B" rel="361"></path><path d="M135 156 L120 182 L150 182 Z" fill="#C0690B" rel="362"></path><path d="M135 156 L150 182 L165 156 Z" fill="#2AE525" rel="363"></path><path d="M165 156 L150 182 L180 182 Z" fill="#2AE525" rel="364"></path><path d="M165 156 L180 182 L195 156 Z" fill="#2AE525" rel="365"></path><path d="M195 156 L180 182 L210 182 Z" fill="#2AE525" rel="366"></path><path d="M195 156 L210 182 L225 156 Z" fill="#2AE525" rel="367"></path><path d="M225 156 L210 182 L240 182 Z" fill="#2AE525" rel="368"></path><path d="M225 156 L240 182 L255 156 Z" fill="#2AE525" rel="369"></path><path d="M255 156 L240 182 L270 182 Z" fill="#2AE525" rel="370"></path><path d="M255 156 L270 182 L285 156 Z" fill="#2AE525" rel="371"></path><path d="M285 156 L270 182 L300 182 Z" fill="#2AE525" rel="372"></path><path d="M285 156 L300 182 L315 156 Z" fill="#2AE525" rel="373"></path><path d="M315 156 L300 182 L330 182 Z" fill="#2AE525" rel="374"></path><path d="M315 156 L330 182 L345 156 Z" fill="#2AE525" rel="375"></path><path d="M345 156 L330 182 L360 182 Z" fill="#2AE525" rel="376"></path><path d="M345 156 L360 182 L375 156 Z" fill="#2AE525" rel="377"></path><path d="M375 156 L360 182 L390 182 Z" fill="#2AE525" rel="378"></path><path d="M375 156 L390 182 L405 156 Z" fill="#2AE525" rel="379"></path><path d="M405 156 L390 182 L420 182 Z" fill="#FFFFFF" rel="380"></path><path d="M405 156 L420 182 L435 156 Z" fill="#FFFFFF" rel="381"></path><path d="M435 156 L420 182 L450 182 Z" fill="#FFFFFF" rel="382"></path><path d="M435 156 L450 182 L465 156 Z" fill="#FFFFFF" rel="383"></path><path d="M465 156 L450 182 L480 182 Z" fill="#FFFFFF" rel="384"></path><path d="M465 156 L480 182 L495 156 Z" fill="#FFFFFF" rel="385"></path><path d="M495 156 L480 182 L510 182 Z" fill="#FFFFFF" rel="386"></path><path d="M495 156 L510 182 L525 156 Z" fill="#FFFFFF" rel="387"></path><path d="M525 156 L510 182 L540 182 Z" fill="#FFFFFF" rel="388"></path><path d="M525 156 L540 182 L555 156 Z" fill="#FFFFFF" rel="389"></path><path d="M555 156 L540 182 L570 182 Z" fill="#FFFFFF" rel="390"></path><path d="M585 156 L570 182 L600 182 Z" fill="#FFFFFF" rel="392"></path><path d="M585 156 L600 182 L615 156 Z" fill="#FFFFFF" rel="393"></path><path d="M615 156 L600 182 L630 182 Z" fill="#FFFFFF" rel="394"></path><path d="M615 156 L630 182 L645 156 Z" fill="#FFFFFF" rel="395"></path><path d="M645 156 L630 182 L660 182 Z" fill="#FFFFFF" rel="396"></path><path d="M90 182 L105 208 L120 182 Z" fill="#FFFFFF" rel="419"></path><path d="M120 182 L135 208 L150 182 Z" fill="#C0690B" rel="421"></path><path d="M150 182 L135 208 L165 208 Z" fill="#C0690B" rel="422"></path><path d="M150 182 L165 208 L180 182 Z" fill="#2AE525" rel="423"></path><path d="M180 182 L165 208 L195 208 Z" fill="#2AE525" rel="424"></path><path d="M180 182 L195 208 L210 182 Z" fill="#2AE525" rel="425"></path><path d="M210 182 L195 208 L225 208 Z" fill="#2AE525" rel="426"></path><path d="M210 182 L225 208 L240 182 Z" fill="#2AE525" rel="427"></path><path d="M240 182 L225 208 L255 208 Z" fill="#2AE525" rel="428"></path><path d="M240 182 L255 208 L270 182 Z" fill="#2AE525" rel="429"></path><path d="M270 182 L255 208 L285 208 Z" fill="#2AE525" rel="430"></path><path d="M270 182 L285 208 L300 182 Z" fill="#2AE525" rel="431"></path><path d="M300 182 L285 208 L315 208 Z" fill="#2AE525" rel="432"></path><path d="M300 182 L315 208 L330 182 Z" fill="#2AE525" rel="433"></path><path d="M330 182 L315 208 L345 208 Z" fill="#2AE525" rel="434"></path><path d="M330 182 L345 208 L360 182 Z" fill="#2AE525" rel="435"></path><path d="M360 182 L345 208 L375 208 Z" fill="#2AE525" rel="436"></path><path d="M360 182 L375 208 L390 182 Z" fill="#2AE525" rel="437"></path><path d="M420 182 L405 208 L435 208 Z" fill="#FFFFFF" rel="440"></path><path d="M420 182 L435 208 L450 182 Z" fill="#FFFFFF" rel="441"></path><path d="M450 182 L435 208 L465 208 Z" fill="#FFFFFF" rel="442"></path><path d="M480 182 L495 208 L510 182 Z" fill="#FFFFFF" rel="445"></path><path d="M510 182 L525 208 L540 182 Z" fill="#FFFFFF" rel="447"></path><path d="M540 182 L525 208 L555 208 Z" fill="#FFFFFF" rel="448"></path><path d="M540 182 L555 208 L570 182 Z" fill="#FFFFFF" rel="449"></path><path d="M570 182 L555 208 L585 208 Z" fill="#FFFFFF" rel="450"></path><path d="M570 182 L585 208 L600 182 Z" fill="#FFFFFF" rel="451"></path><path d="M600 182 L585 208 L615 208 Z" fill="#FFFFFF" rel="452"></path><path d="M600 182 L615 208 L630 182 Z" fill="#FFFFFF" rel="453"></path><path d="M630 182 L615 208 L645 208 Z" fill="#FFFFFF" rel="454"></path><path d="M630 182 L645 208 L660 182 Z" fill="#FFFFFF" rel="455"></path><path d="M105 208 L120 234 L135 208 Z" fill="#FFFFFF" rel="479"></path><path d="M135 208 L120 234 L150 234 Z" fill="#FFFFFF" rel="480"></path><path d="M135 208 L150 234 L165 208 Z" fill="#C0690B" rel="481"></path><path d="M165 208 L150 234 L180 234 Z" fill="#C0690B" rel="482"></path><path d="M165 208 L180 234 L195 208 Z" fill="#C0690B" rel="483"></path><path d="M195 208 L180 234 L210 234 Z" fill="#C0690B" rel="484"></path><path d="M195 208 L210 234 L225 208 Z" fill="#C0690B" rel="485"></path><path d="M225 208 L210 234 L240 234 Z" fill="#2AE525" rel="486"></path><path d="M225 208 L240 234 L255 208 Z" fill="#2AE525" rel="487"></path><path d="M255 208 L240 234 L270 234 Z" fill="#2AE525" rel="488"></path><path d="M255 208 L270 234 L285 208 Z" fill="#2AE525" rel="489"></path><path d="M285 208 L270 234 L300 234 Z" fill="#2AE525" rel="490"></path><path d="M285 208 L300 234 L315 208 Z" fill="#2AE525" rel="491"></path><path d="M315 208 L300 234 L330 234 Z" fill="#2AE525" rel="492"></path><path d="M315 208 L330 234 L345 208 Z" fill="#2AE525" rel="493"></path><path d="M345 208 L330 234 L360 234 Z" fill="#2AE525" rel="494"></path><path d="M345 208 L360 234 L375 208 Z" fill="#2AE525" rel="495"></path><path d="M405 208 L420 234 L435 208 Z" fill="#FFFFFF" rel="499"></path><path d="M495 208 L480 234 L510 234 Z" fill="#FFFFFF" rel="504"></path><path d="M525 208 L540 234 L555 208 Z" fill="#FFFFFF" rel="507"></path><path d="M555 208 L540 234 L570 234 Z" fill="#FFFFFF" rel="508"></path><path d="M555 208 L570 234 L585 208 Z" fill="#FFFFFF" rel="509"></path><path d="M585 208 L600 234 L615 208 Z" fill="#FFFFFF" rel="511"></path><path d="M615 208 L630 234 L645 208 Z" fill="#FFFFFF" rel="513"></path><path d="M645 208 L630 234 L660 234 Z" fill="#FFFFFF" rel="514"></path><path d="M645 208 L660 234 L675 208 Z" fill="#FFFFFF" rel="515"></path><path d="M675 208 L660 234 L690 234 Z" fill="#FFFFFF" rel="516"></path><path d="M675 208 L690 234 L705 208 Z" fill="#FFFFFF" rel="517"></path><path d="M705 208 L690 234 L720 234 Z" fill="#FFFFFF" rel="518"></path><path d="M705 208 L720 234 L735 208 Z" fill="#FFFFFF" rel="519"></path><path d="M735 208 L720 234 L750 234 Z" fill="#FFFFFF" rel="520"></path><path d="M735 208 L750 234 L765 208 Z" fill="#FFFFFF" rel="521"></path><path d="M765 208 L750 234 L780 234 Z" fill="#FFFFFF" rel="522"></path><path d="M765 208 L780 234 L795 208 Z" fill="#FFFFFF" rel="523"></path><path d="M795 208 L780 234 L810 234 Z" fill="#FFFFFF" rel="524"></path><path d="M825 208 L810 234 L840 234 Z" fill="#FFFFFF" rel="526"></path><path d="M825 208 L840 234 L855 208 Z" fill="#FFFFFF" rel="527"></path><path d="M855 208 L840 234 L870 234 Z" fill="#FFFFFF" rel="528"></path><path d="M120 234 L135 260 L150 234 Z" fill="#FFFFFF" rel="539"></path><path d="M150 234 L165 260 L180 234 Z" fill="#C0690B" rel="541"></path><path d="M180 234 L165 260 L195 260 Z" fill="#C0690B" rel="542"></path><path d="M180 234 L195 260 L210 234 Z" fill="#2AE525" rel="543"></path><path d="M210 234 L195 260 L225 260 Z" fill="#2AE525" rel="544"></path><path d="M210 234 L225 260 L240 234 Z" fill="#2AE525" rel="545"></path><path d="M240 234 L225 260 L255 260 Z" fill="#2AE525" rel="546"></path><path d="M240 234 L255 260 L270 234 Z" fill="#2AE525" rel="547"></path><path d="M270 234 L255 260 L285 260 Z" fill="#2AE525" rel="548"></path><path d="M270 234 L285 260 L300 234 Z" fill="#2AE525" rel="549"></path><path d="M300 234 L285 260 L315 260 Z" fill="#2AE525" rel="550"></path><path d="M300 234 L315 260 L330 234 Z" fill="#2AE525" rel="551"></path><path d="M330 234 L315 260 L345 260 Z" fill="#2AE525" rel="552"></path><path d="M330 234 L345 260 L360 234 Z" fill="#2AE525" rel="553"></path><path d="M360 234 L345 260 L375 260 Z" fill="#FFFFFF" rel="554"></path><path d="M390 234 L375 260 L405 260 Z" fill="#FFFFFF" rel="556"></path><path d="M390 234 L405 260 L420 234 Z" fill="#FFFFFF" rel="557"></path><path d="M420 234 L405 260 L435 260 Z" fill="#FFFFFF" rel="558"></path><path d="M420 234 L435 260 L450 234 Z" fill="#FFFFFF" rel="559"></path><path d="M450 234 L435 260 L465 260 Z" fill="#FFFFFF" rel="560"></path><path d="M480 234 L465 260 L495 260 Z" fill="#FFFFFF" rel="562"></path><path d="M480 234 L495 260 L510 234 Z" fill="#FFFFFF" rel="563"></path><path d="M510 234 L495 260 L525 260 Z" fill="#FFFFFF" rel="564"></path><path d="M540 234 L555 260 L570 234 Z" fill="#FFFFFF" rel="567"></path><path d="M570 234 L585 260 L600 234 Z" fill="#FFFFFF" rel="569"></path><path d="M600 234 L585 260 L615 260 Z" fill="#FFFFFF" rel="570"></path><path d="M165 260 L180 286 L195 260 Z" fill="#C0690B" rel="601"></path><path d="M195 260 L180 286 L210 286 Z" fill="#C0690B" rel="602"></path><path d="M195 260 L210 286 L225 260 Z" fill="#2AE525" rel="603"></path><path d="M225 260 L210 286 L240 286 Z" fill="#2AE525" rel="604"></path><path d="M225 260 L240 286 L255 260 Z" fill="#2AE525" rel="605"></path><path d="M255 260 L240 286 L270 286 Z" fill="#2AE525" rel="606"></path><path d="M255 260 L270 286 L285 260 Z" fill="#2AE525" rel="607"></path><path d="M285 260 L270 286 L300 286 Z" fill="#2AE525" rel="608"></path><path d="M285 260 L300 286 L315 260 Z" fill="#2AE525" rel="609"></path><path d="M315 260 L300 286 L330 286 Z" fill="#2AE525" rel="610"></path><path d="M315 260 L330 286 L345 260 Z" fill="#2AE525" rel="611"></path><path d="M345 260 L360 286 L375 260 Z" fill="#FFFFFF" rel="613"></path><path d="M375 260 L360 286 L390 286 Z" fill="#FFFFFF" rel="614"></path><path d="M375 260 L390 286 L405 260 Z" fill="#FFFFFF" rel="615"></path><path d="M405 260 L390 286 L420 286 Z" fill="#FFFFFF" rel="616"></path><path d="M405 260 L420 286 L435 260 Z" fill="#FFFFFF" rel="617"></path><path d="M435 260 L420 286 L450 286 Z" fill="#FFFFFF" rel="618"></path><path d="M435 260 L450 286 L465 260 Z" fill="#FFFFFF" rel="619"></path><path d="M465 260 L450 286 L480 286 Z" fill="#FFFFFF" rel="620"></path><path d="M465 260 L480 286 L495 260 Z" fill="#FFFFFF" rel="621"></path><path d="M495 260 L480 286 L510 286 Z" fill="#FFFFFF" rel="622"></path><path d="M495 260 L510 286 L525 260 Z" fill="#FFFFFF" rel="623"></path><path d="M525 260 L540 286 L555 260 Z" fill="#FFFFFF" rel="625"></path><path d="M555 260 L540 286 L570 286 Z" fill="#FFFFFF" rel="626"></path><path d="M585 260 L600 286 L615 260 Z" fill="#FFFFFF" rel="629"></path><path d="M180 286 L195 312 L210 286 Z" fill="#C0690B" rel="661"></path><path d="M210 286 L195 312 L225 312 Z" fill="#C0690B" rel="662"></path><path d="M210 286 L225 312 L240 286 Z" fill="#2AE525" rel="663"></path><path d="M240 286 L225 312 L255 312 Z" fill="#2AE525" rel="664"></path><path d="M240 286 L255 312 L270 286 Z" fill="#2AE525" rel="665"></path><path d="M270 286 L255 312 L285 312 Z" fill="#2AE525" rel="666"></path><path d="M270 286 L285 312 L300 286 Z" fill="#2AE525" rel="667"></path><path d="M300 286 L285 312 L315 312 Z" fill="#2AE525" rel="668"></path><path d="M300 286 L315 312 L330 286 Z" fill="#2AE525" rel="669"></path><path d="M390 286 L405 312 L420 286 Z" fill="#FFFFFF" rel="675"></path><path d="M420 286 L405 312 L435 312 Z" fill="#FFFFFF" rel="676"></path><path d="M420 286 L435 312 L450 286 Z" fill="#FFFFFF" rel="677"></path><path d="M450 286 L435 312 L465 312 Z" fill="#FFFFFF" rel="678"></path><path d="M450 286 L465 312 L480 286 Z" fill="#FFFFFF" rel="679"></path><path d="M480 286 L465 312 L495 312 Z" fill="#FFFFFF" rel="680"></path><path d="M480 286 L495 312 L510 286 Z" fill="#FFFFFF" rel="681"></path><path d="M510 286 L495 312 L525 312 Z" fill="#FFFFFF" rel="682"></path><path d="M510 286 L525 312 L540 286 Z" fill="#FFFFFF" rel="683"></path><path d="M540 286 L525 312 L555 312 Z" fill="#FFFFFF" rel="684"></path><path d="M540 286 L555 312 L570 286 Z" fill="#FFFFFF" rel="685"></path><path d="M570 286 L555 312 L585 312 Z" fill="#FFFFFF" rel="686"></path><path d="M600 286 L585 312 L615 312 Z" fill="#FFFFFF" rel="688"></path><path d="M195 312 L210 338 L225 312 Z" fill="#C0690B" rel="721"></path><path d="M225 312 L210 338 L240 338 Z" fill="#C0690B" rel="722"></path><path d="M225 312 L240 338 L255 312 Z" fill="#2AE525" rel="723"></path><path d="M255 312 L240 338 L270 338 Z" fill="#2AE525" rel="724"></path><path d="M255 312 L270 338 L285 312 Z" fill="#2AE525" rel="725"></path><path d="M285 312 L270 338 L300 338 Z" fill="#2AE525" rel="726"></path><path d="M285 312 L300 338 L315 312 Z" fill="#2AE525" rel="727"></path><path d="M435 312 L420 338 L450 338 Z" fill="#FFFFFF" rel="736"></path><path d="M435 312 L450 338 L465 312 Z" fill="#FFFFFF" rel="737"></path><path d="M465 312 L450 338 L480 338 Z" fill="#FFFFFF" rel="738"></path><path d="M495 312 L480 338 L510 338 Z" fill="#FFFFFF" rel="740"></path><path d="M495 312 L510 338 L525 312 Z" fill="#FFFFFF" rel="741"></path><path d="M525 312 L510 338 L540 338 Z" fill="#FFFFFF" rel="742"></path><path d="M555 312 L540 338 L570 338 Z" fill="#FFFFFF" rel="744"></path><path d="M555 312 L570 338 L585 312 Z" fill="#FFFFFF" rel="745"></path><path d="M585 312 L570 338 L600 338 Z" fill="#FFFFFF" rel="746"></path><path d="M210 338 L225 364 L240 338 Z" fill="#C0690B" rel="781"></path><path d="M240 338 L225 364 L255 364 Z" fill="#C0690B" rel="782"></path><path d="M240 338 L255 364 L270 338 Z" fill="#2AE525" rel="783"></path><path d="M270 338 L255 364 L285 364 Z" fill="#2AE525" rel="784"></path><path d="M270 338 L285 364 L300 338 Z" fill="#2AE525" rel="785"></path><path d="M450 338 L465 364 L480 338 Z" fill="#FFFFFF" rel="797"></path><path d="M480 338 L465 364 L495 364 Z" fill="#FFFFFF" rel="798"></path><path d="M480 338 L495 364 L510 338 Z" fill="#FFFFFF" rel="799"></path><path d="M510 338 L495 364 L525 364 Z" fill="#FFFFFF" rel="800"></path><path d="M510 338 L525 364 L540 338 Z" fill="#FFFFFF" rel="801"></path><path d="M540 338 L525 364 L555 364 Z" fill="#FFFFFF" rel="802"></path><path d="M540 338 L555 364 L570 338 Z" fill="#FFFFFF" rel="803"></path><path d="M570 338 L555 364 L585 364 Z" fill="#FFFFFF" rel="804"></path><path d="M570 338 L585 364 L600 338 Z" fill="#FFFFFF" rel="805"></path><path d="M600 338 L585 364 L615 364 Z" fill="#FFFFFF" rel="806"></path><path d="M225 364 L240 390 L255 364 Z" fill="#C0690B" rel="841"></path><path d="M255 364 L240 390 L270 390 Z" fill="#C0690B" rel="842"></path><path d="M255 364 L270 390 L285 364 Z" fill="#2AE525" rel="843"></path><path d="M465 364 L480 390 L495 364 Z" fill="#FFFFFF" rel="857"></path><path d="M495 364 L510 390 L525 364 Z" fill="#FFFFFF" rel="859"></path><path d="M525 364 L540 390 L555 364 Z" fill="#FFFFFF" rel="861"></path><path d="M555 364 L540 390 L570 390 Z" fill="#FFFFFF" rel="862"></path><path d="M555 364 L570 390 L585 364 Z" fill="#FFFFFF" rel="863"></path><path d="M585 364 L600 390 L615 364 Z" fill="#FFFFFF" rel="865"></path><path d="M240 390 L255 416 L270 390 Z" fill="#C0690B" rel="901"></path><path d="M450 390 L465 416 L480 390 Z" fill="#FFFFFF" rel="915"></path><path d="M510 390 L495 416 L525 416 Z" fill="#FFFFFF" rel="918"></path><path d="M510 390 L525 416 L540 390 Z" fill="#FFFFFF" rel="919"></path><path d="M540 390 L525 416 L555 416 Z" fill="#FFFFFF" rel="920"></path><path d="M465 416 L450 442 L480 442 Z" fill="#FFFFFF" rel="974"></path><path d="M465 416 L480 442 L495 416 Z" fill="#FFFFFF" rel="975"></path><path d="M495 416 L480 442 L510 442 Z" fill="#FFFFFF" rel="976"></path><path d="M495 416 L510 442 L525 416 Z" fill="#FFFFFF" rel="977"></path><path d="M450 442 L465 468 L480 442 Z" fill="#FFFFFF" rel="1033"></path><path d="M480 442 L495 468 L510 442 Z" fill="#FFFFFF" rel="1035"></path></svg>