<svg version="1.1" preserveAspectRatio="xMinYMin slice" xmlns="http://www.w3.org/2000/svg" width="900" height="520" viewBox="0 0 900 520"><!--{"isLandscape":true,"mapWidth":30,"mapHeight":20,"palette":["#181DC9","#888BF0"]}--><path d="M15 0 L30 26 L45 0 Z" fill="#181DC9" rel="1"></path><path d="M45 0 L30 26 L60 26 Z" fill="#181DC9" rel="2"></path><path d="M45 0 L60 26 L75 0 Z" fill="#181DC9" rel="3"></path><path d="M75 0 L60 26 L90 26 Z" fill="#181DC9" rel="4"></path><path d="M75 0 L90 26 L105 0 Z" fill="#181DC9" rel="5"></path><path d="M105 0 L90 26 L120 26 Z" fill="#181DC9" rel="6"></path><path d="M105 0 L120 26 L135 0 Z" fill="#181DC9" rel="7"></path><path d="M135 0 L120 26 L150 26 Z" fill="#181DC9" rel="8"></path><path d="M135 0 L150 26 L165 0 Z" fill="#181DC9" rel="9"></path><path d="M165 0 L150 26 L180 26 Z" fill="#181DC9" rel="10"></path><path d="M165 0 L180 26 L195 0 Z" fill="#181DC9" rel="11"></path><path d="M195 0 L180 26 L210 26 Z" fill="#181DC9" rel="12"></path><path d="M195 0 L210 26 L225 0 Z" fill="#181DC9" rel="13"></path><path d="M225 0 L210 26 L240 26 Z" fill="#181DC9" rel="14"></path><path d="M225 0 L240 26 L255 0 Z" fill="#181DC9" rel="15"></path><path d="M255 0 L240 26 L270 26 Z" fill="#181DC9" rel="16"></path><path d="M255 0 L270 26 L285 0 Z" fill="#181DC9" rel="17"></path><path d="M285 0 L270 26 L300 26 Z" fill="#181DC9" rel="18"></path><path d="M285 0 L300 26 L315 0 Z" fill="#181DC9" rel="19"></path><path d="M315 0 L300 26 L330 26 Z" fill="#181DC9" rel="20"></path><path d="M315 0 L330 26 L345 0 Z" fill="#181DC9" rel="21"></path><path d="M345 0 L330 26 L360 26 Z" fill="#181DC9" rel="22"></path><path d="M345 0 L360 26 L375 0 Z" fill="#181DC9" rel="23"></path><path d="M375 0 L360 26 L390 26 Z" fill="#181DC9" rel="24"></path><path d="M375 0 L390 26 L405 0 Z" fill="#181DC9" rel="25"></path><path d="M405 0 L390 26 L420 26 Z" fill="#181DC9" rel="26"></path><path d="M405 0 L420 26 L435 0 Z" fill="#181DC9" rel="27"></path><path d="M435 0 L420 26 L450 26 Z" fill="#181DC9" rel="28"></path><path d="M435 0 L450 26 L465 0 Z" fill="#181DC9" rel="29"></path><path d="M465 0 L450 26 L480 26 Z" fill="#181DC9" rel="30"></path><path d="M465 0 L480 26 L495 0 Z" fill="#181DC9" rel="31"></path><path d="M30 26 L45 52 L60 26 Z" fill="#181DC9" rel="61"></path><path d="M60 26 L45 52 L75 52 Z" fill="#181DC9" rel="62"></path><path d="M60 26 L75 52 L90 26 Z" fill="#181DC9" rel="63"></path><path d="M90 26 L75 52 L105 52 Z" fill="#181DC9" rel="64"></path><path d="M90 26 L105 52 L120 26 Z" fill="#181DC9" rel="65"></path><path d="M120 26 L105 52 L135 52 Z" fill="#888BF0" rel="66"></path><path d="M120 26 L135 52 L150 26 Z" fill="#181DC9" rel="67"></path><path d="M150 26 L135 52 L165 52 Z" fill="#181DC9" rel="68"></path><path d="M150 26 L165 52 L180 26 Z" fill="#181DC9" rel="69"></path><path d="M180 26 L165 52 L195 52 Z" fill="#181DC9" rel="70"></path><path d="M180 26 L195 52 L210 26 Z" fill="#181DC9" rel="71"></path><path d="M210 26 L195 52 L225 52 Z" fill="#181DC9" rel="72"></path><path d="M210 26 L225 52 L240 26 Z" fill="#181DC9" rel="73"></path><path d="M240 26 L225 52 L255 52 Z" fill="#181DC9" rel="74"></path><path d="M240 26 L255 52 L270 26 Z" fill="#181DC9" rel="75"></path><path d="M270 26 L255 52 L285 52 Z" fill="#181DC9" rel="76"></path><path d="M270 26 L285 52 L300 26 Z" fill="#181DC9" rel="77"></path><path d="M300 26 L285 52 L315 52 Z" fill="#181DC9" rel="78"></path><path d="M300 26 L315 52 L330 26 Z" fill="#181DC9" rel="79"></path><path d="M330 26 L315 52 L345 52 Z" fill="#181DC9" rel="80"></path><path d="M330 26 L345 52 L360 26 Z" fill="#181DC9" rel="81"></path><path d="M360 26 L345 52 L375 52 Z" fill="#181DC9" rel="82"></path><path d="M360 26 L375 52 L390 26 Z" fill="#181DC9" rel="83"></path><path d="M390 26 L375 52 L405 52 Z" fill="#181DC9" rel="84"></path><path d="M390 26 L405 52 L420 26 Z" fill="#181DC9" rel="85"></path><path d="M420 26 L405 52 L435 52 Z" fill="#181DC9" rel="86"></path><path d="M420 26 L435 52 L450 26 Z" fill="#181DC9" rel="87"></path><path d="M450 26 L435 52 L465 52 Z" fill="#181DC9" rel="88"></path><path d="M450 26 L465 52 L480 26 Z" fill="#181DC9" rel="89"></path><path d="M45 52 L60 78 L75 52 Z" fill="#181DC9" rel="121"></path><path d="M75 52 L60 78 L90 78 Z" fill="#181DC9" rel="122"></path><path d="M75 52 L90 78 L105 52 Z" fill="#181DC9" rel="123"></path><path d="M105 52 L90 78 L120 78 Z" fill="#181DC9" rel="124"></path><path d="M105 52 L120 78 L135 52 Z" fill="#181DC9" rel="125"></path><path d="M135 52 L120 78 L150 78 Z" fill="#181DC9" rel="126"></path><path d="M135 52 L150 78 L165 52 Z" fill="#888BF0" rel="127"></path><path d="M165 52 L150 78 L180 78 Z" fill="#888BF0" rel="128"></path><path d="M165 52 L180 78 L195 52 Z" fill="#888BF0" rel="129"></path><path d="M195 52 L180 78 L210 78 Z" fill="#181DC9" rel="130"></path><path d="M195 52 L210 78 L225 52 Z" fill="#181DC9" rel="131"></path><path d="M225 52 L210 78 L240 78 Z" fill="#181DC9" rel="132"></path><path d="M225 52 L240 78 L255 52 Z" fill="#181DC9" rel="133"></path><path d="M255 52 L240 78 L270 78 Z" fill="#181DC9" rel="134"></path><path d="M255 52 L270 78 L285 52 Z" fill="#181DC9" rel="135"></path><path d="M285 52 L270 78 L300 78 Z" fill="#181DC9" rel="136"></path><path d="M285 52 L300 78 L315 52 Z" fill="#181DC9" rel="137"></path><path d="M315 52 L300 78 L330 78 Z" fill="#888BF0" rel="138"></path><path d="M315 52 L330 78 L345 52 Z" fill="#888BF0" rel="139"></path><path d="M345 52 L330 78 L360 78 Z" fill="#888BF0" rel="140"></path><path d="M345 52 L360 78 L375 52 Z" fill="#181DC9" rel="141"></path><path d="M375 52 L360 78 L390 78 Z" fill="#181DC9" rel="142"></path><path d="M375 52 L390 78 L405 52 Z" fill="#181DC9" rel="143"></path><path d="M405 52 L390 78 L420 78 Z" fill="#181DC9" rel="144"></path><path d="M405 52 L420 78 L435 52 Z" fill="#181DC9" rel="145"></path><path d="M435 52 L420 78 L450 78 Z" fill="#181DC9" rel="146"></path><path d="M435 52 L450 78 L465 52 Z" fill="#181DC9" rel="147"></path><path d="M60 78 L75 104 L90 78 Z" fill="#181DC9" rel="181"></path><path d="M90 78 L75 104 L105 104 Z" fill="#181DC9" rel="182"></path><path d="M90 78 L105 104 L120 78 Z" fill="#181DC9" rel="183"></path><path d="M120 78 L105 104 L135 104 Z" fill="#181DC9" rel="184"></path><path d="M120 78 L135 104 L150 78 Z" fill="#181DC9" rel="185"></path><path d="M150 78 L135 104 L165 104 Z" fill="#181DC9" rel="186"></path><path d="M150 78 L165 104 L180 78 Z" fill="#888BF0" rel="187"></path><path d="M180 78 L165 104 L195 104 Z" fill="#181DC9" rel="188"></path><path d="M180 78 L195 104 L210 78 Z" fill="#181DC9" rel="189"></path><path d="M210 78 L195 104 L225 104 Z" fill="#181DC9" rel="190"></path><path d="M210 78 L225 104 L240 78 Z" fill="#181DC9" rel="191"></path><path d="M240 78 L225 104 L255 104 Z" fill="#181DC9" rel="192"></path><path d="M240 78 L255 104 L270 78 Z" fill="#181DC9" rel="193"></path><path d="M270 78 L255 104 L285 104 Z" fill="#181DC9" rel="194"></path><path d="M270 78 L285 104 L300 78 Z" fill="#181DC9" rel="195"></path><path d="M300 78 L285 104 L315 104 Z" fill="#181DC9" rel="196"></path><path d="M300 78 L315 104 L330 78 Z" fill="#888BF0" rel="197"></path><path d="M330 78 L315 104 L345 104 Z" fill="#888BF0" rel="198"></path><path d="M330 78 L345 104 L360 78 Z" fill="#888BF0" rel="199"></path><path d="M360 78 L345 104 L375 104 Z" fill="#181DC9" rel="200"></path><path d="M360 78 L375 104 L390 78 Z" fill="#181DC9" rel="201"></path><path d="M390 78 L375 104 L405 104 Z" fill="#181DC9" rel="202"></path><path d="M390 78 L405 104 L420 78 Z" fill="#181DC9" rel="203"></path><path d="M420 78 L405 104 L435 104 Z" fill="#181DC9" rel="204"></path><path d="M420 78 L435 104 L450 78 Z" fill="#181DC9" rel="205"></path><path d="M75 104 L90 130 L105 104 Z" fill="#181DC9" rel="241"></path><path d="M105 104 L90 130 L120 130 Z" fill="#181DC9" rel="242"></path><path d="M105 104 L120 130 L135 104 Z" fill="#181DC9" rel="243"></path><path d="M135 104 L120 130 L150 130 Z" fill="#181DC9" rel="244"></path><path d="M135 104 L150 130 L165 104 Z" fill="#181DC9" rel="245"></path><path d="M165 104 L150 130 L180 130 Z" fill="#181DC9" rel="246"></path><path d="M165 104 L180 130 L195 104 Z" fill="#888BF0" rel="247"></path><path d="M195 104 L180 130 L210 130 Z" fill="#888BF0" rel="248"></path><path d="M195 104 L210 130 L225 104 Z" fill="#181DC9" rel="249"></path><path d="M225 104 L210 130 L240 130 Z" fill="#181DC9" rel="250"></path><path d="M225 104 L240 130 L255 104 Z" fill="#181DC9" rel="251"></path><path d="M255 104 L240 130 L270 130 Z" fill="#181DC9" rel="252"></path><path d="M255 104 L270 130 L285 104 Z" fill="#181DC9" rel="253"></path><path d="M285 104 L270 130 L300 130 Z" fill="#181DC9" rel="254"></path><path d="M285 104 L300 130 L315 104 Z" fill="#181DC9" rel="255"></path><path d="M315 104 L300 130 L330 130 Z" fill="#181DC9" rel="256"></path><path d="M315 104 L330 130 L345 104 Z" fill="#181DC9" rel="257"></path><path d="M345 104 L330 130 L360 130 Z" fill="#181DC9" rel="258"></path><path d="M345 104 L360 130 L375 104 Z" fill="#181DC9" rel="259"></path><path d="M375 104 L360 130 L390 130 Z" fill="#181DC9" rel="260"></path><path d="M375 104 L390 130 L405 104 Z" fill="#181DC9" rel="261"></path><path d="M405 104 L390 130 L420 130 Z" fill="#181DC9" rel="262"></path><path d="M405 104 L420 130 L435 104 Z" fill="#181DC9" rel="263"></path><path d="M90 130 L105 156 L120 130 Z" fill="#181DC9" rel="301"></path><path d="M120 130 L105 156 L135 156 Z" fill="#181DC9" rel="302"></path><path d="M120 130 L135 156 L150 130 Z" fill="#181DC9" rel="303"></path><path d="M150 130 L135 156 L165 156 Z" fill="#181DC9" rel="304"></path><path d="M150 130 L165 156 L180 130 Z" fill="#181DC9" rel="305"></path><path d="M180 130 L165 156 L195 156 Z" fill="#181DC9" rel="306"></path><path d="M180 130 L195 156 L210 130 Z" fill="#181DC9" rel="307"></path><path d="M210 130 L195 156 L225 156 Z" fill="#181DC9" rel="308"></path><path d="M210 130 L225 156 L240 130 Z" fill="#181DC9" rel="309"></path><path d="M240 130 L225 156 L255 156 Z" fill="#181DC9" rel="310"></path><path d="M240 130 L255 156 L270 130 Z" fill="#181DC9" rel="311"></path><path d="M270 130 L255 156 L285 156 Z" fill="#181DC9" rel="312"></path><path d="M270 130 L285 156 L300 130 Z" fill="#181DC9" rel="313"></path><path d="M300 130 L285 156 L315 156 Z" fill="#181DC9" rel="314"></path><path d="M300 130 L315 156 L330 130 Z" fill="#181DC9" rel="315"></path><path d="M330 130 L315 156 L345 156 Z" fill="#181DC9" rel="316"></path><path d="M330 130 L345 156 L360 130 Z" fill="#181DC9" rel="317"></path><path d="M360 130 L345 156 L375 156 Z" fill="#181DC9" rel="318"></path><path d="M360 130 L375 156 L390 130 Z" fill="#181DC9" rel="319"></path><path d="M390 130 L375 156 L405 156 Z" fill="#181DC9" rel="320"></path><path d="M390 130 L405 156 L420 130 Z" fill="#181DC9" rel="321"></path><path d="M105 156 L120 182 L135 156 Z" fill="#181DC9" rel="361"></path><path d="M135 156 L120 182 L150 182 Z" fill="#181DC9" rel="362"></path><path d="M135 156 L150 182 L165 156 Z" fill="#181DC9" rel="363"></path><path d="M165 156 L150 182 L180 182 Z" fill="#181DC9" rel="364"></path><path d="M165 156 L180 182 L195 156 Z" fill="#181DC9" rel="365"></path><path d="M195 156 L180 182 L210 182 Z" fill="#181DC9" rel="366"></path><path d="M195 156 L210 182 L225 156 Z" fill="#181DC9" rel="367"></path><path d="M225 156 L210 182 L240 182 Z" fill="#181DC9" rel="368"></path><path d="M225 156 L240 182 L255 156 Z" fill="#181DC9" rel="369"></path><path d="M255 156 L240 182 L270 182 Z" fill="#181DC9" rel="370"></path><path d="M255 156 L270 182 L285 156 Z" fill="#181DC9" rel="371"></path><path d="M285 156 L270 182 L300 182 Z" fill="#181DC9" rel="372"></path><path d="M285 156 L300 182 L315 156 Z" fill="#181DC9" rel="373"></path><path d="M315 156 L300 182 L330 182 Z" fill="#181DC9" rel="374"></path><path d="M315 156 L330 182 L345 156 Z" fill="#181DC9" rel="375"></path><path d="M345 156 L330 182 L360 182 Z" fill="#181DC9" rel="376"></path><path d="M345 156 L360 182 L375 156 Z" fill="#181DC9" rel="377"></path><path d="M375 156 L360 182 L390 182 Z" fill="#181DC9" rel="378"></path><path d="M375 156 L390 182 L405 156 Z" fill="#181DC9" rel="379"></path><path d="M120 182 L135 208 L150 182 Z" fill="#181DC9" rel="421"></path><path d="M150 182 L135 208 L165 208 Z" fill="#181DC9" rel="422"></path><path d="M150 182 L165 208 L180 182 Z" fill="#181DC9" rel="423"></path><path d="M180 182 L165 208 L195 208 Z" fill="#181DC9" rel="424"></path><path d="M180 182 L195 208 L210 182 Z" fill="#181DC9" rel="425"></path><path d="M210 182 L195 208 L225 208 Z" fill="#181DC9" rel="426"></path><path d="M210 182 L225 208 L240 182 Z" fill="#181DC9" rel="427"></path><path d="M240 182 L225 208 L255 208 Z" fill="#181DC9" rel="428"></path><path d="M240 182 L255 208 L270 182 Z" fill="#181DC9" rel="429"></path><path d="M270 182 L255 208 L285 208 Z" fill="#181DC9" rel="430"></path><path d="M270 182 L285 208 L300 182 Z" fill="#888BF0" rel="431"></path><path d="M300 182 L285 208 L315 208 Z" fill="#181DC9" rel="432"></path><path d="M300 182 L315 208 L330 182 Z" fill="#181DC9" rel="433"></path><path d="M330 182 L315 208 L345 208 Z" fill="#181DC9" rel="434"></path><path d="M330 182 L345 208 L360 182 Z" fill="#181DC9" rel="435"></path><path d="M360 182 L345 208 L375 208 Z" fill="#181DC9" rel="436"></path><path d="M360 182 L375 208 L390 182 Z" fill="#181DC9" rel="437"></path><path d="M135 208 L150 234 L165 208 Z" fill="#181DC9" rel="481"></path><path d="M165 208 L150 234 L180 234 Z" fill="#181DC9" rel="482"></path><path d="M165 208 L180 234 L195 208 Z" fill="#181DC9" rel="483"></path><path d="M195 208 L180 234 L210 234 Z" fill="#181DC9" rel="484"></path><path d="M195 208 L210 234 L225 208 Z" fill="#181DC9" rel="485"></path><path d="M225 208 L210 234 L240 234 Z" fill="#181DC9" rel="486"></path><path d="M225 208 L240 234 L255 208 Z" fill="#181DC9" rel="487"></path><path d="M255 208 L240 234 L270 234 Z" fill="#181DC9" rel="488"></path><path d="M255 208 L270 234 L285 208 Z" fill="#181DC9" rel="489"></path><path d="M285 208 L270 234 L300 234 Z" fill="#181DC9" rel="490"></path><path d="M285 208 L300 234 L315 208 Z" fill="#181DC9" rel="491"></path><path d="M315 208 L300 234 L330 234 Z" fill="#181DC9" rel="492"></path><path d="M315 208 L330 234 L345 208 Z" fill="#181DC9" rel="493"></path><path d="M345 208 L330 234 L360 234 Z" fill="#181DC9" rel="494"></path><path d="M345 208 L360 234 L375 208 Z" fill="#181DC9" rel="495"></path><path d="M150 234 L165 260 L180 234 Z" fill="#181DC9" rel="541"></path><path d="M180 234 L165 260 L195 260 Z" fill="#181DC9" rel="542"></path><path d="M180 234 L195 260 L210 234 Z" fill="#181DC9" rel="543"></path><path d="M210 234 L195 260 L225 260 Z" fill="#181DC9" rel="544"></path><path d="M210 234 L225 260 L240 234 Z" fill="#181DC9" rel="545"></path><path d="M240 234 L225 260 L255 260 Z" fill="#181DC9" rel="546"></path><path d="M240 234 L255 260 L270 234 Z" fill="#181DC9" rel="547"></path><path d="M270 234 L255 260 L285 260 Z" fill="#181DC9" rel="548"></path><path d="M270 234 L285 260 L300 234 Z" fill="#181DC9" rel="549"></path><path d="M300 234 L285 260 L315 260 Z" fill="#181DC9" rel="550"></path><path d="M300 234 L315 260 L330 234 Z" fill="#181DC9" rel="551"></path><path d="M330 234 L315 260 L345 260 Z" fill="#181DC9" rel="552"></path><path d="M330 234 L345 260 L360 234 Z" fill="#181DC9" rel="553"></path><path d="M165 260 L180 286 L195 260 Z" fill="#181DC9" rel="601"></path><path d="M195 260 L180 286 L210 286 Z" fill="#181DC9" rel="602"></path><path d="M195 260 L210 286 L225 260 Z" fill="#181DC9" rel="603"></path><path d="M225 260 L210 286 L240 286 Z" fill="#181DC9" rel="604"></path><path d="M225 260 L240 286 L255 260 Z" fill="#888BF0" rel="605"></path><path d="M255 260 L240 286 L270 286 Z" fill="#888BF0" rel="606"></path><path d="M255 260 L270 286 L285 260 Z" fill="#181DC9" rel="607"></path><path d="M285 260 L270 286 L300 286 Z" fill="#181DC9" rel="608"></path><path d="M285 260 L300 286 L315 260 Z" fill="#181DC9" rel="609"></path><path d="M315 260 L300 286 L330 286 Z" fill="#181DC9" rel="610"></path><path d="M315 260 L330 286 L345 260 Z" fill="#181DC9" rel="611"></path><path d="M180 286 L195 312 L210 286 Z" fill="#181DC9" rel="661"></path><path d="M210 286 L195 312 L225 312 Z" fill="#181DC9" rel="662"></path><path d="M210 286 L225 312 L240 286 Z" fill="#181DC9" rel="663"></path><path d="M240 286 L225 312 L255 312 Z" fill="#888BF0" rel="664"></path><path d="M240 286 L255 312 L270 286 Z" fill="#888BF0" rel="665"></path><path d="M270 286 L255 312 L285 312 Z" fill="#181DC9" rel="666"></path><path d="M270 286 L285 312 L300 286 Z" fill="#181DC9" rel="667"></path><path d="M300 286 L285 312 L315 312 Z" fill="#181DC9" rel="668"></path><path d="M300 286 L315 312 L330 286 Z" fill="#181DC9" rel="669"></path><path d="M195 312 L210 338 L225 312 Z" fill="#181DC9" rel="721"></path><path d="M225 312 L210 338 L240 338 Z" fill="#181DC9" rel="722"></path><path d="M225 312 L240 338 L255 312 Z" fill="#181DC9" rel="723"></path><path d="M255 312 L240 338 L270 338 Z" fill="#181DC9" rel="724"></path><path d="M255 312 L270 338 L285 312 Z" fill="#181DC9" rel="725"></path><path d="M285 312 L270 338 L300 338 Z" fill="#181DC9" rel="726"></path><path d="M285 312 L300 338 L315 312 Z" fill="#181DC9" rel="727"></path><path d="M210 338 L225 364 L240 338 Z" fill="#181DC9" rel="781"></path><path d="M240 338 L225 364 L255 364 Z" fill="#181DC9" rel="782"></path><path d="M240 338 L255 364 L270 338 Z" fill="#181DC9" rel="783"></path><path d="M270 338 L255 364 L285 364 Z" fill="#181DC9" rel="784"></path><path d="M270 338 L285 364 L300 338 Z" fill="#181DC9" rel="785"></path><path d="M225 364 L240 390 L255 364 Z" fill="#181DC9" rel="841"></path><path d="M255 364 L240 390 L270 390 Z" fill="#181DC9" rel="842"></path><path d="M255 364 L270 390 L285 364 Z" fill="#181DC9" rel="843"></path><path d="M240 390 L255 416 L270 390 Z" fill="#181DC9" rel="901"></path></svg>